<?xml version="1.0" encoding="utf-8"?>
<!-- Generator: Adobe Illustrator 22.0.1, SVG Export Plug-In . SVG Version: 6.00 Build 0)  -->
<svg version="1.1" id="Layer_1" xmlns="http://www.w3.org/2000/svg" xmlns:xlink="http://www.w3.org/1999/xlink" x="0px" y="0px"
	 viewBox="0 0 200 200" style="enable-background:new 0 0 200 200;" xml:space="preserve">
<style type="text/css">
	.st0{fill:#EC1C24;}
	.st1{fill:#262261;}
	.st2{fill:none;}
	.st3{fill:#EC1C24;stroke:#171E4C;stroke-width:3;stroke-miterlimit:10;}
</style>
<g>
	<g>
		<path class="st0" d="M100,190.5l-1.4-0.4c-28.8-7.8-69.1-39.4-69.1-71.5V17.4L100,0l70.5,17.4v101.2c0,32.1-40.2,63.8-69.1,71.5
			L100,190.5z M38.5,25.6v93.3c0,12.1,7.5,25.8,21.1,38.4c11.7,10.9,27.1,19.9,40.4,23.8c13.4-3.9,28.7-13,40.4-23.8
			c13.6-12.6,21.1-26.3,21.1-38.4V25.6L100,10.3L38.5,25.6z"/>
	</g>
	<g>
		<g>
			<path class="st1" d="M189.5,106.9c1.5,4.1-0.3,7.8-0.3,7.8s-3.7-1.8-5.2-6c-1.5-4.1-0.1-9.1-0.1-9.1S188.1,102.8,189.5,106.9z"/>
			<path class="st1" d="M197.3,118.2c-1.2,4.9-4.8,7.5-4.8,7.5s-2.1-3.8-0.9-8.7c1.2-4.9,5.1-9,5.1-9S198.5,113.3,197.3,118.2z"/>
			<path class="st1" d="M198.1,134.3c-2.3,4.5-6.4,6.2-6.4,6.2s-1.1-4.2,1.2-8.7c2.3-4.5,7.2-7.6,7.2-7.6S200.4,129.8,198.1,134.3z"
				/>
			<path class="st1" d="M194.8,150c-3.4,3.8-7.8,4.6-7.8,4.6s0-4.3,3.3-8.1c3.4-3.8,8.8-5.8,8.8-5.8S198.2,146.2,194.8,150z"/>
			<path class="st1" d="M188,165.3c-4.5,3.1-9.3,2.8-9.3,2.8s1.2-4.4,5.7-7.5c4.5-3.1,10.7-3.8,10.7-3.8S192.5,162.2,188,165.3z"/>
			<path class="st1" d="M177.6,178.6c-5.2,2.1-9.8,0.5-9.8,0.5s2.1-4.2,7.3-6.2c5.2-2.1,11.4-1.2,11.4-1.2S182.8,176.6,177.6,178.6z
				"/>
			<path class="st1" d="M164.1,188.6c-5.6,0.4-9.4-2.4-9.4-2.4s3.4-3.3,9-3.7c5.6-0.4,11.2,2.3,11.2,2.3S169.6,188.3,164.1,188.6z"
				/>
			<path class="st1" d="M148.7,195.4c-5.5-0.7-8.7-4.3-8.7-4.3s4.1-2.6,9.6-1.8c5.5,0.7,10.4,4.5,10.4,4.5S154.3,196.1,148.7,195.4z
				"/>
			<path class="st1" d="M131.8,198.6c-5.2-2-7.3-6.2-7.3-6.2s4.6-1.5,9.8,0.5c5.2,2,8.9,6.9,8.9,6.9S137,200.7,131.8,198.6z"/>
			<path class="st1" d="M187.3,118.2c2.8,3.7,2.2,7.7,2.2,7.7s-4.2-0.8-7-4.4c-2.8-3.7-3.1-8.9-3.1-8.9S184.5,114.5,187.3,118.2z"/>
			<path class="st1" d="M188.1,131.9c1.8,4.2,0.2,8,0.2,8s-3.9-1.7-5.6-5.9c-1.8-4.2-0.8-9.3-0.8-9.3S186.3,127.7,188.1,131.9z"/>
			<path class="st1" d="M185.5,145.6c0.8,4.5-1.6,7.9-1.6,7.9s-3.4-2.5-4.2-7c-0.8-4.5,1.3-9.3,1.3-9.3S184.7,141.1,185.5,145.6z"/>
			<path class="st1" d="M179.5,158.4c-0.2,4.8-3.3,7.8-3.3,7.8s-2.8-3.3-2.5-8c0.2-4.8,3.4-9.3,3.4-9.3S179.8,153.6,179.5,158.4z"/>
			<path class="st1" d="M170.7,169.3c-1.4,4.6-5.1,6.8-5.1,6.8s-1.9-3.8-0.4-8.4c1.4-4.6,5.6-8.2,5.6-8.2S172.1,164.7,170.7,169.3z"
				/>
			<path class="st1" d="M159.7,177.8c-2.3,4.2-6.4,5.7-6.4,5.7s-1.1-4.1,1.2-8.3c2.3-4.2,7.1-7,7.1-7S162,173.6,159.7,177.8z"/>
			<path class="st1" d="M147.1,183.5c-3.2,3.7-7.5,4.3-7.5,4.3s-0.1-4.2,3.1-7.9c3.2-3.7,8.5-5.4,8.5-5.4S150.3,179.9,147.1,183.5z"
				/>
			<path class="st1" d="M133,186.7c-3.9,2.9-8.3,2.6-8.3,2.6s0.8-4.1,4.7-7.1c3.9-2.9,9.5-3.6,9.5-3.6S136.9,183.8,133,186.7z"/>
		</g>
		<g>
			<path class="st1" d="M10.5,106.9c-1.5,4.1,0.3,7.8,0.3,7.8s3.7-1.8,5.2-6c1.5-4.1,0.1-9.1,0.1-9.1S11.9,102.8,10.5,106.9z"/>
			<path class="st1" d="M2.7,118.2c1.2,4.9,4.8,7.5,4.8,7.5s2.1-3.8,0.9-8.7c-1.2-4.9-5.1-9-5.1-9S1.5,113.3,2.7,118.2z"/>
			<path class="st1" d="M1.9,134.3c2.3,4.5,6.4,6.2,6.4,6.2s1.1-4.2-1.2-8.7c-2.3-4.5-7.2-7.6-7.2-7.6S-0.4,129.8,1.9,134.3z"/>
			<path class="st1" d="M5.2,150c3.4,3.8,7.8,4.6,7.8,4.6s0-4.3-3.3-8.1c-3.4-3.8-8.8-5.8-8.8-5.8S1.8,146.2,5.2,150z"/>
			<path class="st1" d="M12,165.3c4.5,3.1,9.3,2.8,9.3,2.8s-1.2-4.4-5.7-7.5c-4.5-3.1-10.7-3.8-10.7-3.8S7.5,162.2,12,165.3z"/>
			<path class="st1" d="M22.4,178.6c5.2,2.1,9.8,0.5,9.8,0.5s-2.1-4.2-7.3-6.2c-5.2-2.1-11.4-1.2-11.4-1.2S17.2,176.6,22.4,178.6z"
				/>
			<path class="st1" d="M35.9,188.6c5.6,0.4,9.4-2.4,9.4-2.4s-3.4-3.3-9-3.7c-5.6-0.4-11.2,2.3-11.2,2.3S30.4,188.3,35.9,188.6z"/>
			<path class="st1" d="M51.3,195.4c5.5-0.7,8.7-4.3,8.7-4.3s-4.1-2.6-9.6-1.8c-5.5,0.7-10.4,4.5-10.4,4.5S45.7,196.1,51.3,195.4z"
				/>
			<path class="st1" d="M68.2,198.6c5.2-2,7.3-6.2,7.3-6.2s-4.6-1.5-9.8,0.5c-5.2,2-8.9,6.9-8.9,6.9S63,200.7,68.2,198.6z"/>
			<path class="st1" d="M12.7,118.2c-2.8,3.7-2.2,7.7-2.2,7.7s4.2-0.8,7-4.4c2.8-3.7,3.1-8.9,3.1-8.9S15.5,114.5,12.7,118.2z"/>
			<path class="st1" d="M11.9,131.9c-1.8,4.2-0.2,8-0.2,8s3.9-1.7,5.6-5.9c1.8-4.2,0.8-9.3,0.8-9.3S13.7,127.7,11.9,131.9z"/>
			<path class="st1" d="M14.5,145.6c-0.8,4.5,1.6,7.9,1.6,7.9s3.4-2.5,4.2-7c0.8-4.5-1.3-9.3-1.3-9.3S15.3,141.1,14.5,145.6z"/>
			<path class="st1" d="M20.5,158.4c0.2,4.8,3.3,7.8,3.3,7.8s2.8-3.3,2.5-8c-0.2-4.8-3.4-9.3-3.4-9.3S20.2,153.6,20.5,158.4z"/>
			<path class="st1" d="M29.3,169.3c1.4,4.6,5.1,6.8,5.1,6.8s1.9-3.8,0.4-8.4c-1.4-4.6-5.6-8.2-5.6-8.2S27.9,164.7,29.3,169.3z"/>
			<path class="st1" d="M40.3,177.8c2.3,4.2,6.4,5.7,6.4,5.7s1.1-4.1-1.2-8.3c-2.3-4.2-7.1-7-7.1-7S38,173.6,40.3,177.8z"/>
			<path class="st1" d="M52.9,183.5c3.2,3.7,7.5,4.3,7.5,4.3s0.1-4.2-3.1-7.9c-3.2-3.7-8.5-5.4-8.5-5.4S49.7,179.9,52.9,183.5z"/>
			<path class="st1" d="M67,186.7c3.9,2.9,8.3,2.6,8.3,2.6s-0.8-4.1-4.7-7.1c-3.9-2.9-9.5-3.6-9.5-3.6S63.1,183.8,67,186.7z"/>
		</g>
	</g>
	<path id="SVGID_x5F_1_x5F_" class="st2" d="M36.1,79.5c43-9.1,84.9-9.1,127.9,0"/>
	<text>	<textPath  xlink:href="#SVGID_x5F_1_x5F_" startOffset="0.269%">
<tspan  class="st0" style="font-family:'Norwester-Regular'; font-size:37.2337px; letter-spacing:-32.6;">UNI-BOOK</tspan>	</textPath>
</text>
	<g>
		<g>
			<polygon class="st1" points="100,16.5 102.6,24.6 111.1,24.6 104.2,29.6 106.8,37.7 100,32.6 93.2,37.7 95.8,29.6 88.9,24.6 
				97.4,24.6 			"/>
			<g>
				<g>
					<g>
						<polygon class="st1" points="79.6,24.8 81,29.2 85.7,29.2 81.9,31.9 83.3,36.4 79.6,33.6 75.9,36.4 77.3,31.9 73.5,29.2 
							78.2,29.2 						"/>
					</g>
					<polygon class="st1" points="64.7,28.6 65.8,32 69.3,31.9 66.5,34 67.6,37.4 64.7,35.3 61.9,37.4 63,34 60.1,31.9 63.7,32 
											"/>
				</g>
				<g>
					<g>
						<polygon class="st1" points="120.4,24.8 119,29.2 114.3,29.2 118.1,31.9 116.7,36.4 120.4,33.6 124.1,36.4 122.7,31.9 
							126.5,29.2 121.8,29.2 						"/>
					</g>
					<polygon class="st1" points="135.3,28.6 134.2,32 130.7,31.9 133.5,34 132.4,37.4 135.3,35.3 138.1,37.4 137,34 139.9,31.9 
						136.3,32 					"/>
				</g>
			</g>
		</g>
	</g>
	<path class="st3" d="M163.5,84.9c0,0-30.1-7.6-63.5-7.6c-33.5,0-63.5,7.6-63.5,7.6"/>
	<g>
		<g>
			<g>
				<path class="st0" d="M99.1,164.1v-39.7c0,0-5.3-10.8-25.2-19.5v42.3C74,147.2,90.5,151.1,99.1,164.1z"/>
				<path class="st0" d="M89.1,156.3c0,0-8.2-4.7-19.5-6.4v-42.7l2.3,0.8v40.3C72,148.4,83.4,151.9,89.1,156.3z"/>
				<path class="st0" d="M94.5,162.6c0,0-11.4-6.4-30.4-7.4v-44.1l3.5,0.4v40.3C67.7,151.8,85.8,153.5,94.5,162.6z"/>
			</g>
		</g>
		<g>
			<g>
				<path class="st0" d="M100.9,164.1v-39.7c0,0,5.3-10.8,25.2-19.5v42.3C126,147.2,109.5,151.1,100.9,164.1z"/>
				<path class="st0" d="M110.9,156.3c0,0,8.2-4.7,19.5-6.4v-42.7l-2.3,0.8v40.3C128,148.4,116.6,151.9,110.9,156.3z"/>
				<path class="st0" d="M105.5,162.6c0,0,11.4-6.4,30.4-7.4v-44.1l-3.5,0.4v40.3C132.3,151.8,114.2,153.5,105.5,162.6z"/>
			</g>
		</g>
	</g>
	<g>
		<path class="st1" d="M90.6,109.4v0.4c0,1.6,1.1,3,2.5,3h13.8c1.4,0,2.5-1.3,2.5-3v-0.4H90.6z"/>
		<path class="st1" d="M95.1,114.2v0.6c0,2.2,1.8,4,3.2,4h3.5c1.4,0,3.2-1.8,3.2-4v-0.6H95.1z"/>
		<g>
			<path class="st1" d="M98.6,108.1H93c0,0-5.5-7.6,0.9-15.2C93.9,92.9,92.1,101.5,98.6,108.1z"/>
			<path class="st1" d="M108.2,99.9c-2.3-5.1-5-4.9-4.6-11c0,0-2.3,0.2-3.8,2.8c0,0-1.7-2.8-1.5-6.7c0,0-8.6,10.9,1.8,23.1v0.1h7.9
				C108,108.2,110.5,105,108.2,99.9z"/>
		</g>
	</g>
	<g>
		<polygon class="st1" points="100,167 101.2,171.1 105.4,172.4 101.2,173.6 100,177.8 98.8,173.6 94.6,172.4 98.8,171.1 		"/>
		<g>
			<polygon class="st1" points="89.8,166.9 90.5,169.2 92.8,169.9 90.5,170.6 89.8,172.9 89.1,170.6 86.8,169.9 89.1,169.2 			"/>
			<polygon class="st1" points="110.2,166.9 110.9,169.2 113.2,169.9 110.9,170.6 110.2,172.9 109.5,170.6 107.2,169.9 109.5,169.2 
							"/>
		</g>
	</g>
	<g>
		<polygon class="st1" points="45.8,103 50,108 46.9,108 47.2,109.3 50.9,114.5 48.3,113.9 48.8,116 52,119.9 49.6,119.3 
			50.4,122.4 52.9,125.4 51,125.2 56.6,148.5 56.6,106.6 44.4,97.3 		"/>
		<polygon class="st1" points="147.1,125.4 149.6,122.4 150.4,119.3 148,119.9 151.2,116 151.7,113.9 149.1,114.5 152.8,109.3 
			153.1,108 150,108 154.2,103 155.6,97.3 143.4,106.6 143.4,148.5 149,125.2 		"/>
	</g>
</g>
</svg>
